<mxfile host="Electron" modified="2023-12-23T21:01:33.969Z" agent="Mozilla/5.0 (X11; Linux x86_64) AppleWebKit/537.36 (KHTML, like Gecko) draw.io/22.1.11 Chrome/114.0.5735.289 Electron/25.9.8 Safari/537.36" etag="guIGrMKpHNB8GZJIQyjY" version="22.1.11" type="device">
  <diagram name="Page-1" id="2YBvvXClWsGukQMizWep">
    <mxGraphModel dx="552" dy="385" grid="1" gridSize="10" guides="1" tooltips="1" connect="1" arrows="1" fold="1" page="1" pageScale="1" pageWidth="827" pageHeight="1169" math="0" shadow="0">
      <root>
        <mxCell id="0" />
        <mxCell id="1" parent="0" />
        <mxCell id="QETQvhtK7Vk9mIHsB0_v-30" value="state" style="shape=umlLifeline;perimeter=lifelinePerimeter;whiteSpace=wrap;html=1;container=0;dropTarget=0;collapsible=0;recursiveResize=0;outlineConnect=0;portConstraint=eastwest;newEdgeStyle={&quot;edgeStyle&quot;:&quot;elbowEdgeStyle&quot;,&quot;elbow&quot;:&quot;vertical&quot;,&quot;curved&quot;:0,&quot;rounded&quot;:0};" parent="1" vertex="1">
          <mxGeometry x="271" y="54" width="100" height="1106" as="geometry" />
        </mxCell>
        <mxCell id="QETQvhtK7Vk9mIHsB0_v-32" value="" style="html=1;points=[];perimeter=orthogonalPerimeter;outlineConnect=0;targetShapes=umlLifeline;portConstraint=eastwest;newEdgeStyle={&quot;edgeStyle&quot;:&quot;elbowEdgeStyle&quot;,&quot;elbow&quot;:&quot;vertical&quot;,&quot;curved&quot;:0,&quot;rounded&quot;:0};" parent="QETQvhtK7Vk9mIHsB0_v-30" vertex="1">
          <mxGeometry x="45" y="206" width="10" height="10" as="geometry" />
        </mxCell>
        <mxCell id="QETQvhtK7Vk9mIHsB0_v-38" value="" style="html=1;points=[[0,0,0,0,5],[0,1,0,0,-5],[1,0,0,0,5],[1,1,0,0,-5]];perimeter=orthogonalPerimeter;outlineConnect=0;targetShapes=umlLifeline;portConstraint=eastwest;newEdgeStyle={&quot;curved&quot;:0,&quot;rounded&quot;:0};" parent="QETQvhtK7Vk9mIHsB0_v-30" vertex="1">
          <mxGeometry x="45" y="566" width="10" height="10" as="geometry" />
        </mxCell>
        <mxCell id="QETQvhtK7Vk9mIHsB0_v-1" value="Main" style="shape=umlLifeline;perimeter=lifelinePerimeter;whiteSpace=wrap;html=1;container=0;dropTarget=0;collapsible=0;recursiveResize=0;outlineConnect=0;portConstraint=eastwest;newEdgeStyle={&quot;edgeStyle&quot;:&quot;elbowEdgeStyle&quot;,&quot;elbow&quot;:&quot;vertical&quot;,&quot;curved&quot;:0,&quot;rounded&quot;:0};" parent="1" vertex="1">
          <mxGeometry x="50" y="73" width="50" height="1087" as="geometry" />
        </mxCell>
        <mxCell id="QETQvhtK7Vk9mIHsB0_v-2" value="" style="html=1;points=[];perimeter=orthogonalPerimeter;outlineConnect=0;targetShapes=umlLifeline;portConstraint=eastwest;newEdgeStyle={&quot;edgeStyle&quot;:&quot;elbowEdgeStyle&quot;,&quot;elbow&quot;:&quot;vertical&quot;,&quot;curved&quot;:0,&quot;rounded&quot;:0};" parent="QETQvhtK7Vk9mIHsB0_v-1" vertex="1">
          <mxGeometry x="20" y="100" width="10" height="940" as="geometry" />
        </mxCell>
        <mxCell id="QETQvhtK7Vk9mIHsB0_v-3" value="dispatch" style="html=1;verticalAlign=bottom;startArrow=oval;endArrow=block;startSize=8;edgeStyle=elbowEdgeStyle;elbow=vertical;curved=0;rounded=0;" parent="QETQvhtK7Vk9mIHsB0_v-1" target="QETQvhtK7Vk9mIHsB0_v-2" edge="1">
          <mxGeometry x="-0.3245" y="3" relative="1" as="geometry">
            <mxPoint x="-10" y="100" as="sourcePoint" />
            <mxPoint as="offset" />
          </mxGeometry>
        </mxCell>
        <mxCell id="QETQvhtK7Vk9mIHsB0_v-5" value="ChangeManager" style="shape=umlLifeline;perimeter=lifelinePerimeter;whiteSpace=wrap;html=1;container=0;dropTarget=0;collapsible=0;recursiveResize=0;outlineConnect=0;portConstraint=eastwest;newEdgeStyle={&quot;edgeStyle&quot;:&quot;elbowEdgeStyle&quot;,&quot;elbow&quot;:&quot;vertical&quot;,&quot;curved&quot;:0,&quot;rounded&quot;:0};" parent="1" vertex="1">
          <mxGeometry x="140" y="75" width="100" height="1085" as="geometry" />
        </mxCell>
        <mxCell id="QETQvhtK7Vk9mIHsB0_v-6" value="" style="html=1;points=[];perimeter=orthogonalPerimeter;outlineConnect=0;targetShapes=umlLifeline;portConstraint=eastwest;newEdgeStyle={&quot;edgeStyle&quot;:&quot;elbowEdgeStyle&quot;,&quot;elbow&quot;:&quot;vertical&quot;,&quot;curved&quot;:0,&quot;rounded&quot;:0};" parent="QETQvhtK7Vk9mIHsB0_v-5" vertex="1">
          <mxGeometry x="45" y="183" width="10" height="17" as="geometry" />
        </mxCell>
        <mxCell id="QETQvhtK7Vk9mIHsB0_v-36" value="" style="html=1;points=[[0,0,0,0,5],[0,1,0,0,-5],[1,0,0,0,5],[1,1,0,0,-5]];perimeter=orthogonalPerimeter;outlineConnect=0;targetShapes=umlLifeline;portConstraint=eastwest;newEdgeStyle={&quot;curved&quot;:0,&quot;rounded&quot;:0};" parent="QETQvhtK7Vk9mIHsB0_v-5" vertex="1">
          <mxGeometry x="45" y="530" width="10" height="130" as="geometry" />
        </mxCell>
        <mxCell id="ve03lsI1t8z092RaoCKH-33" value="" style="html=1;points=[[0,0,0,0,5],[0,1,0,0,-5],[1,0,0,0,5],[1,1,0,0,-5]];perimeter=orthogonalPerimeter;outlineConnect=0;targetShapes=umlLifeline;portConstraint=eastwest;newEdgeStyle={&quot;curved&quot;:0,&quot;rounded&quot;:0};" parent="QETQvhtK7Vk9mIHsB0_v-5" vertex="1">
          <mxGeometry x="45" y="278" width="10" height="12" as="geometry" />
        </mxCell>
        <mxCell id="QETQvhtK7Vk9mIHsB0_v-10" value="ViewHandler&lt;br&gt;Log" style="shape=umlLifeline;perimeter=lifelinePerimeter;whiteSpace=wrap;html=1;container=0;dropTarget=0;collapsible=0;recursiveResize=0;outlineConnect=0;portConstraint=eastwest;newEdgeStyle={&quot;edgeStyle&quot;:&quot;elbowEdgeStyle&quot;,&quot;elbow&quot;:&quot;vertical&quot;,&quot;curved&quot;:0,&quot;rounded&quot;:0};" parent="1" vertex="1">
          <mxGeometry x="391" y="76" width="100" height="1084" as="geometry" />
        </mxCell>
        <mxCell id="QETQvhtK7Vk9mIHsB0_v-11" value="" style="html=1;points=[];perimeter=orthogonalPerimeter;outlineConnect=0;targetShapes=umlLifeline;portConstraint=eastwest;newEdgeStyle={&quot;edgeStyle&quot;:&quot;elbowEdgeStyle&quot;,&quot;elbow&quot;:&quot;vertical&quot;,&quot;curved&quot;:0,&quot;rounded&quot;:0};" parent="QETQvhtK7Vk9mIHsB0_v-10" vertex="1">
          <mxGeometry x="45" y="208" width="10" height="62" as="geometry" />
        </mxCell>
        <mxCell id="ve03lsI1t8z092RaoCKH-53" value="" style="html=1;points=[[0,0,0,0,5],[0,1,0,0,-5],[1,0,0,0,5],[1,1,0,0,-5]];perimeter=orthogonalPerimeter;outlineConnect=0;targetShapes=umlLifeline;portConstraint=eastwest;newEdgeStyle={&quot;curved&quot;:0,&quot;rounded&quot;:0};" parent="QETQvhtK7Vk9mIHsB0_v-10" vertex="1">
          <mxGeometry x="45" y="575" width="10" height="15" as="geometry" />
        </mxCell>
        <mxCell id="iAInxyBxGeqeAdMTvfF1-6" value="" style="html=1;points=[[0,0,0,0,5],[0,1,0,0,-5],[1,0,0,0,5],[1,1,0,0,-5]];perimeter=orthogonalPerimeter;outlineConnect=0;targetShapes=umlLifeline;portConstraint=eastwest;newEdgeStyle={&quot;curved&quot;:0,&quot;rounded&quot;:0};" vertex="1" parent="QETQvhtK7Vk9mIHsB0_v-10">
          <mxGeometry x="45" y="962" width="10" height="28" as="geometry" />
        </mxCell>
        <mxCell id="QETQvhtK7Vk9mIHsB0_v-14" value="ViewHandler&lt;br&gt;Tick1" style="shape=umlLifeline;perimeter=lifelinePerimeter;whiteSpace=wrap;html=1;container=0;dropTarget=0;collapsible=0;recursiveResize=0;outlineConnect=0;portConstraint=eastwest;newEdgeStyle={&quot;edgeStyle&quot;:&quot;elbowEdgeStyle&quot;,&quot;elbow&quot;:&quot;vertical&quot;,&quot;curved&quot;:0,&quot;rounded&quot;:0};" parent="1" vertex="1">
          <mxGeometry x="519" y="75" width="100" height="1085" as="geometry" />
        </mxCell>
        <mxCell id="QETQvhtK7Vk9mIHsB0_v-15" value="" style="html=1;points=[];perimeter=orthogonalPerimeter;outlineConnect=0;targetShapes=umlLifeline;portConstraint=eastwest;newEdgeStyle={&quot;edgeStyle&quot;:&quot;elbowEdgeStyle&quot;,&quot;elbow&quot;:&quot;vertical&quot;,&quot;curved&quot;:0,&quot;rounded&quot;:0};" parent="QETQvhtK7Vk9mIHsB0_v-14" vertex="1">
          <mxGeometry x="45" y="309" width="10" height="51" as="geometry" />
        </mxCell>
        <mxCell id="QETQvhtK7Vk9mIHsB0_v-28" value="" style="html=1;points=[[0,0,0,0,5],[0,1,0,0,-5],[1,0,0,0,5],[1,1,0,0,-5]];perimeter=orthogonalPerimeter;outlineConnect=0;targetShapes=umlLifeline;portConstraint=eastwest;newEdgeStyle={&quot;curved&quot;:0,&quot;rounded&quot;:0};" parent="QETQvhtK7Vk9mIHsB0_v-14" vertex="1">
          <mxGeometry x="45" y="507" width="10" height="23" as="geometry" />
        </mxCell>
        <mxCell id="ve03lsI1t8z092RaoCKH-54" value="" style="html=1;points=[[0,0,0,0,5],[0,1,0,0,-5],[1,0,0,0,5],[1,1,0,0,-5]];perimeter=orthogonalPerimeter;outlineConnect=0;targetShapes=umlLifeline;portConstraint=eastwest;newEdgeStyle={&quot;curved&quot;:0,&quot;rounded&quot;:0};" parent="QETQvhtK7Vk9mIHsB0_v-14" vertex="1">
          <mxGeometry x="45" y="615" width="10" height="10" as="geometry" />
        </mxCell>
        <mxCell id="GORoO4-SwAkdAgsHTjS7-42" value="" style="html=1;points=[[0,0,0,0,5],[0,1,0,0,-5],[1,0,0,0,5],[1,1,0,0,-5]];perimeter=orthogonalPerimeter;outlineConnect=0;targetShapes=umlLifeline;portConstraint=eastwest;newEdgeStyle={&quot;curved&quot;:0,&quot;rounded&quot;:0};" parent="QETQvhtK7Vk9mIHsB0_v-14" vertex="1">
          <mxGeometry x="45" y="860" width="10" height="30" as="geometry" />
        </mxCell>
        <mxCell id="QETQvhtK7Vk9mIHsB0_v-21" value="ViewHandler&lt;br&gt;Tick2" style="shape=umlLifeline;perimeter=lifelinePerimeter;whiteSpace=wrap;html=1;container=0;dropTarget=0;collapsible=0;recursiveResize=0;outlineConnect=0;portConstraint=eastwest;newEdgeStyle={&quot;edgeStyle&quot;:&quot;elbowEdgeStyle&quot;,&quot;elbow&quot;:&quot;vertical&quot;,&quot;curved&quot;:0,&quot;rounded&quot;:0};" parent="1" vertex="1">
          <mxGeometry x="660" y="75" width="100" height="1085" as="geometry" />
        </mxCell>
        <mxCell id="QETQvhtK7Vk9mIHsB0_v-22" value="" style="html=1;points=[];perimeter=orthogonalPerimeter;outlineConnect=0;targetShapes=umlLifeline;portConstraint=eastwest;newEdgeStyle={&quot;edgeStyle&quot;:&quot;elbowEdgeStyle&quot;,&quot;elbow&quot;:&quot;vertical&quot;,&quot;curved&quot;:0,&quot;rounded&quot;:0};" parent="QETQvhtK7Vk9mIHsB0_v-21" vertex="1">
          <mxGeometry x="45" y="400" width="10" height="50" as="geometry" />
        </mxCell>
        <object label="Timer" Timer="" id="QETQvhtK7Vk9mIHsB0_v-26">
          <mxCell style="shape=umlLifeline;perimeter=lifelinePerimeter;whiteSpace=wrap;html=1;container=1;dropTarget=0;collapsible=0;recursiveResize=0;outlineConnect=0;portConstraint=eastwest;newEdgeStyle={&quot;curved&quot;:0,&quot;rounded&quot;:0};participant=umlActor;" parent="1" vertex="1">
            <mxGeometry x="790" y="20" width="20" height="1140" as="geometry" />
          </mxCell>
        </object>
        <mxCell id="QETQvhtK7Vk9mIHsB0_v-27" value="dispatch" style="html=1;verticalAlign=bottom;endArrow=block;curved=0;rounded=0;" parent="1" source="QETQvhtK7Vk9mIHsB0_v-26" target="QETQvhtK7Vk9mIHsB0_v-28" edge="1">
          <mxGeometry x="-0.3971" width="80" relative="1" as="geometry">
            <mxPoint x="809.83" y="582" as="sourcePoint" />
            <mxPoint x="550" y="582" as="targetPoint" />
            <mxPoint as="offset" />
          </mxGeometry>
        </mxCell>
        <mxCell id="QETQvhtK7Vk9mIHsB0_v-41" value="update" style="html=1;verticalAlign=bottom;endArrow=block;curved=0;rounded=0;" parent="1" target="QETQvhtK7Vk9mIHsB0_v-38" edge="1">
          <mxGeometry width="80" relative="1" as="geometry">
            <mxPoint x="195" y="623" as="sourcePoint" />
            <mxPoint x="325" y="623" as="targetPoint" />
          </mxGeometry>
        </mxCell>
        <mxCell id="ve03lsI1t8z092RaoCKH-1" value="cviewend" style="shape=umlLifeline;perimeter=lifelinePerimeter;whiteSpace=wrap;html=1;container=0;dropTarget=0;collapsible=0;recursiveResize=0;outlineConnect=0;portConstraint=eastwest;newEdgeStyle={&quot;edgeStyle&quot;:&quot;elbowEdgeStyle&quot;,&quot;elbow&quot;:&quot;vertical&quot;,&quot;curved&quot;:0,&quot;rounded&quot;:0};" parent="1" vertex="1">
          <mxGeometry x="100" y="125" width="70" height="1035" as="geometry" />
        </mxCell>
        <mxCell id="ve03lsI1t8z092RaoCKH-10" value="" style="html=1;points=[[0,0,0,0,5],[0,1,0,0,-5],[1,0,0,0,5],[1,1,0,0,-5]];perimeter=orthogonalPerimeter;outlineConnect=0;targetShapes=umlLifeline;portConstraint=eastwest;newEdgeStyle={&quot;curved&quot;:0,&quot;rounded&quot;:0};" parent="ve03lsI1t8z092RaoCKH-1" vertex="1">
          <mxGeometry x="31" y="70" width="10" height="10" as="geometry" />
        </mxCell>
        <mxCell id="ve03lsI1t8z092RaoCKH-5" value="creg" style="shape=umlLifeline;perimeter=lifelinePerimeter;whiteSpace=wrap;html=1;container=0;dropTarget=0;collapsible=0;recursiveResize=0;outlineConnect=0;portConstraint=eastwest;newEdgeStyle={&quot;edgeStyle&quot;:&quot;elbowEdgeStyle&quot;,&quot;elbow&quot;:&quot;vertical&quot;,&quot;curved&quot;:0,&quot;rounded&quot;:0};" parent="1" vertex="1">
          <mxGeometry x="201" y="125" width="49" height="1035" as="geometry" />
        </mxCell>
        <mxCell id="ve03lsI1t8z092RaoCKH-13" value="" style="html=1;points=[[0,0,0,0,5],[0,1,0,0,-5],[1,0,0,0,5],[1,1,0,0,-5]];perimeter=orthogonalPerimeter;outlineConnect=0;targetShapes=umlLifeline;portConstraint=eastwest;newEdgeStyle={&quot;curved&quot;:0,&quot;rounded&quot;:0};" parent="ve03lsI1t8z092RaoCKH-5" vertex="1">
          <mxGeometry x="19.5" y="90" width="10" height="10" as="geometry" />
        </mxCell>
        <mxCell id="ve03lsI1t8z092RaoCKH-37" value="" style="html=1;points=[[0,0,0,0,5],[0,1,0,0,-5],[1,0,0,0,5],[1,1,0,0,-5]];perimeter=orthogonalPerimeter;outlineConnect=0;targetShapes=umlLifeline;portConstraint=eastwest;newEdgeStyle={&quot;curved&quot;:0,&quot;rounded&quot;:0};" parent="ve03lsI1t8z092RaoCKH-5" vertex="1">
          <mxGeometry x="19.5" y="218" width="10" height="12" as="geometry" />
        </mxCell>
        <mxCell id="ve03lsI1t8z092RaoCKH-6" value="cevt" style="shape=umlLifeline;perimeter=lifelinePerimeter;whiteSpace=wrap;html=1;container=0;dropTarget=0;collapsible=0;recursiveResize=0;outlineConnect=0;portConstraint=eastwest;newEdgeStyle={&quot;edgeStyle&quot;:&quot;elbowEdgeStyle&quot;,&quot;elbow&quot;:&quot;vertical&quot;,&quot;curved&quot;:0,&quot;rounded&quot;:0};" parent="1" vertex="1">
          <mxGeometry x="261" y="125" width="49" height="1035" as="geometry" />
        </mxCell>
        <mxCell id="ve03lsI1t8z092RaoCKH-14" value="" style="html=1;points=[[0,0,0,0,5],[0,1,0,0,-5],[1,0,0,0,5],[1,1,0,0,-5]];perimeter=orthogonalPerimeter;outlineConnect=0;targetShapes=umlLifeline;portConstraint=eastwest;newEdgeStyle={&quot;curved&quot;:0,&quot;rounded&quot;:0};" parent="ve03lsI1t8z092RaoCKH-6" vertex="1">
          <mxGeometry x="19" y="110" width="10" height="10" as="geometry" />
        </mxCell>
        <mxCell id="ve03lsI1t8z092RaoCKH-45" value="" style="html=1;points=[[0,0,0,0,5],[0,1,0,0,-5],[1,0,0,0,5],[1,1,0,0,-5]];perimeter=orthogonalPerimeter;outlineConnect=0;targetShapes=umlLifeline;portConstraint=eastwest;newEdgeStyle={&quot;curved&quot;:0,&quot;rounded&quot;:0};" parent="ve03lsI1t8z092RaoCKH-6" vertex="1">
          <mxGeometry x="19.5" y="470" width="10" height="10" as="geometry" />
        </mxCell>
        <mxCell id="ve03lsI1t8z092RaoCKH-9" value="new" style="html=1;verticalAlign=bottom;endArrow=block;curved=0;rounded=0;" parent="1" source="QETQvhtK7Vk9mIHsB0_v-2" edge="1">
          <mxGeometry width="80" relative="1" as="geometry">
            <mxPoint x="100" y="195" as="sourcePoint" />
            <mxPoint x="130" y="195" as="targetPoint" />
          </mxGeometry>
        </mxCell>
        <mxCell id="QETQvhtK7Vk9mIHsB0_v-20" value="dispatch" style="html=1;verticalAlign=bottom;endArrow=block;curved=0;rounded=0;" parent="1" edge="1">
          <mxGeometry x="0.5455" width="80" relative="1" as="geometry">
            <mxPoint x="80" y="259" as="sourcePoint" />
            <mxPoint x="185" y="259" as="targetPoint" />
            <mxPoint as="offset" />
          </mxGeometry>
        </mxCell>
        <mxCell id="ve03lsI1t8z092RaoCKH-11" value="new" style="html=1;verticalAlign=bottom;endArrow=block;curved=0;rounded=0;" parent="1" source="QETQvhtK7Vk9mIHsB0_v-2" edge="1">
          <mxGeometry x="0.1724" width="80" relative="1" as="geometry">
            <mxPoint x="75" y="215" as="sourcePoint" />
            <mxPoint x="220" y="215" as="targetPoint" />
            <mxPoint as="offset" />
          </mxGeometry>
        </mxCell>
        <mxCell id="ve03lsI1t8z092RaoCKH-12" value="new" style="html=1;verticalAlign=bottom;endArrow=block;curved=0;rounded=0;" parent="1" source="QETQvhtK7Vk9mIHsB0_v-2" edge="1">
          <mxGeometry x="0.6667" width="80" relative="1" as="geometry">
            <mxPoint x="75" y="234" as="sourcePoint" />
            <mxPoint x="280" y="234" as="targetPoint" />
            <mxPoint as="offset" />
          </mxGeometry>
        </mxCell>
        <mxCell id="ve03lsI1t8z092RaoCKH-16" value="new" style="html=1;verticalAlign=bottom;endArrow=block;curved=0;rounded=0;" parent="1" target="QETQvhtK7Vk9mIHsB0_v-32" edge="1">
          <mxGeometry width="80" relative="1" as="geometry">
            <mxPoint x="195" y="266" as="sourcePoint" />
            <mxPoint x="325" y="266" as="targetPoint" />
          </mxGeometry>
        </mxCell>
        <mxCell id="ve03lsI1t8z092RaoCKH-17" value="cst" style="shape=umlLifeline;perimeter=lifelinePerimeter;whiteSpace=wrap;html=1;container=0;dropTarget=0;collapsible=0;recursiveResize=0;outlineConnect=0;portConstraint=eastwest;newEdgeStyle={&quot;edgeStyle&quot;:&quot;elbowEdgeStyle&quot;,&quot;elbow&quot;:&quot;vertical&quot;,&quot;curved&quot;:0,&quot;rounded&quot;:0};" parent="1" vertex="1">
          <mxGeometry x="380" y="125" width="49" height="1035" as="geometry" />
        </mxCell>
        <mxCell id="ve03lsI1t8z092RaoCKH-18" value="" style="html=1;points=[[0,0,0,0,5],[0,1,0,0,-5],[1,0,0,0,5],[1,1,0,0,-5]];perimeter=orthogonalPerimeter;outlineConnect=0;targetShapes=umlLifeline;portConstraint=eastwest;newEdgeStyle={&quot;curved&quot;:0,&quot;rounded&quot;:0};" parent="ve03lsI1t8z092RaoCKH-17" vertex="1">
          <mxGeometry x="19" y="180" width="10" height="10" as="geometry" />
        </mxCell>
        <mxCell id="ve03lsI1t8z092RaoCKH-47" value="" style="html=1;points=[[0,0,0,0,5],[0,1,0,0,-5],[1,0,0,0,5],[1,1,0,0,-5]];perimeter=orthogonalPerimeter;outlineConnect=0;targetShapes=umlLifeline;portConstraint=eastwest;newEdgeStyle={&quot;curved&quot;:0,&quot;rounded&quot;:0};" parent="ve03lsI1t8z092RaoCKH-17" vertex="1">
          <mxGeometry x="19.5" y="520" width="10" height="10" as="geometry" />
        </mxCell>
        <mxCell id="QETQvhtK7Vk9mIHsB0_v-12" value="dispatch" style="html=1;verticalAlign=bottom;endArrow=block;curved=0;rounded=0;" parent="1" source="QETQvhtK7Vk9mIHsB0_v-2" target="QETQvhtK7Vk9mIHsB0_v-11" edge="1">
          <mxGeometry x="0.5833" width="80" relative="1" as="geometry">
            <mxPoint x="195" y="283" as="sourcePoint" />
            <mxPoint x="340" y="283" as="targetPoint" />
            <Array as="points">
              <mxPoint x="280" y="283" />
            </Array>
            <mxPoint as="offset" />
          </mxGeometry>
        </mxCell>
        <mxCell id="ve03lsI1t8z092RaoCKH-19" value="new" style="html=1;verticalAlign=bottom;endArrow=block;curved=0;rounded=0;" parent="1" edge="1">
          <mxGeometry x="0.1538" width="80" relative="1" as="geometry">
            <mxPoint x="435" y="307" as="sourcePoint" />
            <mxPoint x="409" y="307" as="targetPoint" />
            <mxPoint as="offset" />
          </mxGeometry>
        </mxCell>
        <mxCell id="QETQvhtK7Vk9mIHsB0_v-18" value="dispatch" style="html=1;verticalAlign=bottom;endArrow=block;curved=0;rounded=0;" parent="1" target="QETQvhtK7Vk9mIHsB0_v-15" edge="1">
          <mxGeometry x="0.6116" width="80" relative="1" as="geometry">
            <mxPoint x="80" y="384.02" as="sourcePoint" />
            <mxPoint x="561" y="384.02" as="targetPoint" />
            <mxPoint as="offset" />
          </mxGeometry>
        </mxCell>
        <mxCell id="ve03lsI1t8z092RaoCKH-21" value="register" style="html=1;verticalAlign=bottom;endArrow=block;curved=0;rounded=0;" parent="1" edge="1">
          <mxGeometry x="-0.3826" y="1" width="80" relative="1" as="geometry">
            <mxPoint x="436" y="343" as="sourcePoint" />
            <mxPoint x="230.5" y="343" as="targetPoint" />
            <mxPoint as="offset" />
          </mxGeometry>
        </mxCell>
        <mxCell id="ve03lsI1t8z092RaoCKH-22" value="cst" style="shape=umlLifeline;perimeter=lifelinePerimeter;whiteSpace=wrap;html=1;container=0;dropTarget=0;collapsible=0;recursiveResize=0;outlineConnect=0;portConstraint=eastwest;newEdgeStyle={&quot;edgeStyle&quot;:&quot;elbowEdgeStyle&quot;,&quot;elbow&quot;:&quot;vertical&quot;,&quot;curved&quot;:0,&quot;rounded&quot;:0};" parent="1" vertex="1">
          <mxGeometry x="508" y="127" width="49" height="1033" as="geometry" />
        </mxCell>
        <mxCell id="ve03lsI1t8z092RaoCKH-23" value="" style="html=1;points=[[0,0,0,0,5],[0,1,0,0,-5],[1,0,0,0,5],[1,1,0,0,-5]];perimeter=orthogonalPerimeter;outlineConnect=0;targetShapes=umlLifeline;portConstraint=eastwest;newEdgeStyle={&quot;curved&quot;:0,&quot;rounded&quot;:0};" parent="ve03lsI1t8z092RaoCKH-22" vertex="1">
          <mxGeometry x="19" y="279" width="10" height="11" as="geometry" />
        </mxCell>
        <mxCell id="ve03lsI1t8z092RaoCKH-48" value="" style="html=1;points=[[0,0,0,0,5],[0,1,0,0,-5],[1,0,0,0,5],[1,1,0,0,-5]];perimeter=orthogonalPerimeter;outlineConnect=0;targetShapes=umlLifeline;portConstraint=eastwest;newEdgeStyle={&quot;curved&quot;:0,&quot;rounded&quot;:0};" parent="ve03lsI1t8z092RaoCKH-22" vertex="1">
          <mxGeometry x="19.5" y="555" width="10" height="13" as="geometry" />
        </mxCell>
        <mxCell id="ve03lsI1t8z092RaoCKH-25" value="new" style="html=1;verticalAlign=bottom;endArrow=block;curved=0;rounded=0;" parent="1" edge="1">
          <mxGeometry x="0.2" width="80" relative="1" as="geometry">
            <mxPoint x="564" y="404" as="sourcePoint" />
            <mxPoint x="537" y="404" as="targetPoint" />
            <mxPoint as="offset" />
          </mxGeometry>
        </mxCell>
        <mxCell id="ve03lsI1t8z092RaoCKH-26" value="register" style="html=1;verticalAlign=bottom;endArrow=block;curved=0;rounded=0;" parent="1" source="QETQvhtK7Vk9mIHsB0_v-15" target="ve03lsI1t8z092RaoCKH-39" edge="1">
          <mxGeometry x="-0.4363" y="-3" width="80" relative="1" as="geometry">
            <mxPoint x="475" y="415" as="sourcePoint" />
            <mxPoint x="240" y="424" as="targetPoint" />
            <mxPoint as="offset" />
          </mxGeometry>
        </mxCell>
        <mxCell id="QETQvhtK7Vk9mIHsB0_v-23" value="dispatch" style="html=1;verticalAlign=bottom;endArrow=block;curved=0;rounded=0;" parent="1" target="QETQvhtK7Vk9mIHsB0_v-22" edge="1">
          <mxGeometry x="0.6667" width="80" relative="1" as="geometry">
            <mxPoint x="80" y="475" as="sourcePoint" />
            <mxPoint x="625" y="475" as="targetPoint" />
            <mxPoint as="offset" />
          </mxGeometry>
        </mxCell>
        <mxCell id="ve03lsI1t8z092RaoCKH-28" value="cst" style="shape=umlLifeline;perimeter=lifelinePerimeter;whiteSpace=wrap;html=1;container=0;dropTarget=0;collapsible=0;recursiveResize=0;outlineConnect=0;portConstraint=eastwest;newEdgeStyle={&quot;edgeStyle&quot;:&quot;elbowEdgeStyle&quot;,&quot;elbow&quot;:&quot;vertical&quot;,&quot;curved&quot;:0,&quot;rounded&quot;:0};" parent="1" vertex="1">
          <mxGeometry x="650" y="126" width="50" height="1034" as="geometry" />
        </mxCell>
        <mxCell id="ve03lsI1t8z092RaoCKH-29" value="" style="html=1;points=[[0,0,0,0,5],[0,1,0,0,-5],[1,0,0,0,5],[1,1,0,0,-5]];perimeter=orthogonalPerimeter;outlineConnect=0;targetShapes=umlLifeline;portConstraint=eastwest;newEdgeStyle={&quot;curved&quot;:0,&quot;rounded&quot;:0};" parent="ve03lsI1t8z092RaoCKH-28" vertex="1">
          <mxGeometry x="19" y="367" width="10" height="10" as="geometry" />
        </mxCell>
        <mxCell id="ve03lsI1t8z092RaoCKH-55" value="" style="html=1;points=[[0,0,0,0,5],[0,1,0,0,-5],[1,0,0,0,5],[1,1,0,0,-5]];perimeter=orthogonalPerimeter;outlineConnect=0;targetShapes=umlLifeline;portConstraint=eastwest;newEdgeStyle={&quot;curved&quot;:0,&quot;rounded&quot;:0};" parent="ve03lsI1t8z092RaoCKH-28" vertex="1">
          <mxGeometry x="55" y="590" width="10" height="10" as="geometry" />
        </mxCell>
        <mxCell id="ve03lsI1t8z092RaoCKH-49" value="" style="html=1;points=[[0,0,0,0,5],[0,1,0,0,-5],[1,0,0,0,5],[1,1,0,0,-5]];perimeter=orthogonalPerimeter;outlineConnect=0;targetShapes=umlLifeline;portConstraint=eastwest;newEdgeStyle={&quot;curved&quot;:0,&quot;rounded&quot;:0};" parent="ve03lsI1t8z092RaoCKH-28" vertex="1">
          <mxGeometry x="20.5" y="582" width="10" height="10" as="geometry" />
        </mxCell>
        <mxCell id="ve03lsI1t8z092RaoCKH-30" value="new" style="html=1;verticalAlign=bottom;endArrow=block;curved=0;rounded=0;" parent="1" edge="1">
          <mxGeometry x="0.2" width="80" relative="1" as="geometry">
            <mxPoint x="705" y="492" as="sourcePoint" />
            <mxPoint x="679" y="492" as="targetPoint" />
            <mxPoint as="offset" />
          </mxGeometry>
        </mxCell>
        <mxCell id="ve03lsI1t8z092RaoCKH-31" value="register" style="html=1;verticalAlign=bottom;endArrow=block;curved=0;rounded=0;" parent="1" source="QETQvhtK7Vk9mIHsB0_v-22" target="ve03lsI1t8z092RaoCKH-42" edge="1">
          <mxGeometry x="-0.5574" y="2" width="80" relative="1" as="geometry">
            <mxPoint x="740" y="511" as="sourcePoint" />
            <mxPoint x="240" y="508" as="targetPoint" />
            <mxPoint as="offset" />
          </mxGeometry>
        </mxCell>
        <mxCell id="ve03lsI1t8z092RaoCKH-34" value="" style="html=1;verticalAlign=bottom;endArrow=block;curved=0;rounded=0;" parent="1" source="ve03lsI1t8z092RaoCKH-37" edge="1">
          <mxGeometry x="0.2" width="80" relative="1" as="geometry">
            <mxPoint x="210" y="353" as="sourcePoint" />
            <mxPoint x="195" y="353" as="targetPoint" />
            <mxPoint as="offset" />
          </mxGeometry>
        </mxCell>
        <mxCell id="ve03lsI1t8z092RaoCKH-38" value="" style="html=1;points=[[0,0,0,0,5],[0,1,0,0,-5],[1,0,0,0,5],[1,1,0,0,-5]];perimeter=orthogonalPerimeter;outlineConnect=0;targetShapes=umlLifeline;portConstraint=eastwest;newEdgeStyle={&quot;curved&quot;:0,&quot;rounded&quot;:0};" parent="1" vertex="1">
          <mxGeometry x="185" y="433" width="10" height="12" as="geometry" />
        </mxCell>
        <mxCell id="ve03lsI1t8z092RaoCKH-39" value="" style="html=1;points=[[0,0,0,0,5],[0,1,0,0,-5],[1,0,0,0,5],[1,1,0,0,-5]];perimeter=orthogonalPerimeter;outlineConnect=0;targetShapes=umlLifeline;portConstraint=eastwest;newEdgeStyle={&quot;curved&quot;:0,&quot;rounded&quot;:0};" parent="1" vertex="1">
          <mxGeometry x="220.5" y="423" width="10" height="12" as="geometry" />
        </mxCell>
        <mxCell id="ve03lsI1t8z092RaoCKH-40" value="" style="html=1;verticalAlign=bottom;endArrow=block;curved=0;rounded=0;" parent="1" source="ve03lsI1t8z092RaoCKH-39" edge="1">
          <mxGeometry x="0.2" width="80" relative="1" as="geometry">
            <mxPoint x="210" y="433" as="sourcePoint" />
            <mxPoint x="195" y="433" as="targetPoint" />
            <mxPoint as="offset" />
          </mxGeometry>
        </mxCell>
        <mxCell id="ve03lsI1t8z092RaoCKH-41" value="" style="html=1;points=[[0,0,0,0,5],[0,1,0,0,-5],[1,0,0,0,5],[1,1,0,0,-5]];perimeter=orthogonalPerimeter;outlineConnect=0;targetShapes=umlLifeline;portConstraint=eastwest;newEdgeStyle={&quot;curved&quot;:0,&quot;rounded&quot;:0};" parent="1" vertex="1">
          <mxGeometry x="185" y="517" width="10" height="12" as="geometry" />
        </mxCell>
        <mxCell id="ve03lsI1t8z092RaoCKH-42" value="" style="html=1;points=[[0,0,0,0,5],[0,1,0,0,-5],[1,0,0,0,5],[1,1,0,0,-5]];perimeter=orthogonalPerimeter;outlineConnect=0;targetShapes=umlLifeline;portConstraint=eastwest;newEdgeStyle={&quot;curved&quot;:0,&quot;rounded&quot;:0};" parent="1" vertex="1">
          <mxGeometry x="220.5" y="507" width="10" height="12" as="geometry" />
        </mxCell>
        <mxCell id="ve03lsI1t8z092RaoCKH-43" value="" style="html=1;verticalAlign=bottom;endArrow=block;curved=0;rounded=0;" parent="1" source="ve03lsI1t8z092RaoCKH-42" edge="1">
          <mxGeometry x="0.2" width="80" relative="1" as="geometry">
            <mxPoint x="210" y="517" as="sourcePoint" />
            <mxPoint x="195" y="517" as="targetPoint" />
            <mxPoint as="offset" />
          </mxGeometry>
        </mxCell>
        <mxCell id="ve03lsI1t8z092RaoCKH-44" value="eventTick" style="html=1;verticalAlign=bottom;endArrow=block;curved=0;rounded=0;" parent="1" source="QETQvhtK7Vk9mIHsB0_v-28" edge="1">
          <mxGeometry x="-0.3126" width="80" relative="1" as="geometry">
            <mxPoint x="585" y="595" as="sourcePoint" />
            <mxPoint x="290.5" y="595" as="targetPoint" />
            <mxPoint as="offset" />
          </mxGeometry>
        </mxCell>
        <mxCell id="ve03lsI1t8z092RaoCKH-46" value="" style="html=1;verticalAlign=bottom;endArrow=block;curved=0;rounded=0;" parent="1" source="ve03lsI1t8z092RaoCKH-45" edge="1">
          <mxGeometry x="0.2" width="80" relative="1" as="geometry">
            <mxPoint x="220.5" y="605" as="sourcePoint" />
            <mxPoint x="194.5" y="605" as="targetPoint" />
            <mxPoint as="offset" />
          </mxGeometry>
        </mxCell>
        <mxCell id="ve03lsI1t8z092RaoCKH-50" value="state" style="html=1;verticalAlign=bottom;endArrow=block;curved=0;rounded=0;" parent="1" target="ve03lsI1t8z092RaoCKH-47" edge="1">
          <mxGeometry x="-0.4621" width="80" relative="1" as="geometry">
            <mxPoint x="195" y="645" as="sourcePoint" />
            <mxPoint x="429" y="645" as="targetPoint" />
            <mxPoint as="offset" />
          </mxGeometry>
        </mxCell>
        <object label="Log_out" Timer="" id="ve03lsI1t8z092RaoCKH-51">
          <mxCell style="shape=umlLifeline;perimeter=lifelinePerimeter;whiteSpace=wrap;html=1;container=1;dropTarget=0;collapsible=0;recursiveResize=0;outlineConnect=0;portConstraint=eastwest;newEdgeStyle={&quot;curved&quot;:0,&quot;rounded&quot;:0};participant=umlActor;size=40;" parent="1" vertex="1">
            <mxGeometry x="491" y="23" width="20" height="1137" as="geometry" />
          </mxCell>
        </object>
        <mxCell id="ve03lsI1t8z092RaoCKH-56" value="" style="html=1;verticalAlign=bottom;endArrow=block;curved=0;rounded=0;" parent="1" source="ve03lsI1t8z092RaoCKH-47" target="ve03lsI1t8z092RaoCKH-53" edge="1">
          <mxGeometry width="80" relative="1" as="geometry">
            <mxPoint x="350" y="650" as="sourcePoint" />
            <mxPoint x="430" y="650" as="targetPoint" />
          </mxGeometry>
        </mxCell>
        <mxCell id="ve03lsI1t8z092RaoCKH-58" value="log" style="html=1;verticalAlign=bottom;endArrow=block;curved=0;rounded=0;" parent="1" edge="1">
          <mxGeometry x="-0.0909" width="80" relative="1" as="geometry">
            <mxPoint x="445" y="660" as="sourcePoint" />
            <mxPoint x="500" y="660" as="targetPoint" />
            <mxPoint as="offset" />
          </mxGeometry>
        </mxCell>
        <object label="V 1" Timer="" id="GORoO4-SwAkdAgsHTjS7-1">
          <mxCell style="shape=umlLifeline;perimeter=lifelinePerimeter;whiteSpace=wrap;html=1;container=1;dropTarget=0;collapsible=0;recursiveResize=0;outlineConnect=0;portConstraint=eastwest;newEdgeStyle={&quot;curved&quot;:0,&quot;rounded&quot;:0};participant=umlActor;size=40;" parent="1" vertex="1">
            <mxGeometry x="619" y="20" width="20" height="1140" as="geometry" />
          </mxCell>
        </object>
        <object label="V 2" Timer="" id="GORoO4-SwAkdAgsHTjS7-2">
          <mxCell style="shape=umlLifeline;perimeter=lifelinePerimeter;whiteSpace=wrap;html=1;container=1;dropTarget=0;collapsible=0;recursiveResize=0;outlineConnect=0;portConstraint=eastwest;newEdgeStyle={&quot;curved&quot;:0,&quot;rounded&quot;:0};participant=umlActor;size=40;" parent="1" vertex="1">
            <mxGeometry x="760" y="20" width="20" height="1140" as="geometry" />
          </mxCell>
        </object>
        <mxCell id="GORoO4-SwAkdAgsHTjS7-6" value="state" style="html=1;verticalAlign=bottom;endArrow=block;curved=0;rounded=0;" parent="1" edge="1">
          <mxGeometry x="-0.6692" width="80" relative="1" as="geometry">
            <mxPoint x="195" y="681" as="sourcePoint" />
            <mxPoint x="527.5" y="681" as="targetPoint" />
            <mxPoint as="offset" />
          </mxGeometry>
        </mxCell>
        <mxCell id="GORoO4-SwAkdAgsHTjS7-7" value="" style="html=1;verticalAlign=bottom;endArrow=block;curved=0;rounded=0;" parent="1" edge="1">
          <mxGeometry width="80" relative="1" as="geometry">
            <mxPoint x="538" y="691" as="sourcePoint" />
            <mxPoint x="563" y="691" as="targetPoint" />
          </mxGeometry>
        </mxCell>
        <mxCell id="GORoO4-SwAkdAgsHTjS7-8" value="print" style="html=1;verticalAlign=bottom;endArrow=block;curved=0;rounded=0;" parent="1" edge="1">
          <mxGeometry x="-0.0909" width="80" relative="1" as="geometry">
            <mxPoint x="574" y="697" as="sourcePoint" />
            <mxPoint x="629" y="697" as="targetPoint" />
            <mxPoint as="offset" />
          </mxGeometry>
        </mxCell>
        <mxCell id="GORoO4-SwAkdAgsHTjS7-9" value="state" style="html=1;verticalAlign=bottom;endArrow=block;curved=0;rounded=0;entryX=0;entryY=0;entryDx=0;entryDy=5;entryPerimeter=0;" parent="1" target="ve03lsI1t8z092RaoCKH-49" edge="1">
          <mxGeometry x="-0.7724" width="80" relative="1" as="geometry">
            <mxPoint x="196" y="713" as="sourcePoint" />
            <mxPoint x="529" y="713" as="targetPoint" />
            <mxPoint as="offset" />
          </mxGeometry>
        </mxCell>
        <mxCell id="GORoO4-SwAkdAgsHTjS7-10" value="" style="html=1;verticalAlign=bottom;endArrow=block;curved=0;rounded=0;" parent="1" edge="1">
          <mxGeometry width="80" relative="1" as="geometry">
            <mxPoint x="680" y="716" as="sourcePoint" />
            <mxPoint x="705" y="716" as="targetPoint" />
          </mxGeometry>
        </mxCell>
        <mxCell id="GORoO4-SwAkdAgsHTjS7-11" value="print" style="html=1;verticalAlign=bottom;endArrow=block;curved=0;rounded=0;" parent="1" edge="1">
          <mxGeometry x="-0.0909" width="80" relative="1" as="geometry">
            <mxPoint x="715" y="723" as="sourcePoint" />
            <mxPoint x="770" y="723" as="targetPoint" />
            <mxPoint as="offset" />
          </mxGeometry>
        </mxCell>
        <mxCell id="GORoO4-SwAkdAgsHTjS7-13" value="Actors" style="text;html=1;strokeColor=none;fillColor=none;align=center;verticalAlign=middle;whiteSpace=wrap;rounded=0;" parent="1" vertex="1">
          <mxGeometry x="7" y="20" width="60" height="30" as="geometry" />
        </mxCell>
        <mxCell id="GORoO4-SwAkdAgsHTjS7-16" value="fun" style="text;html=1;align=center;verticalAlign=middle;resizable=0;points=[];autosize=1;strokeColor=none;fillColor=none;" parent="1" vertex="1">
          <mxGeometry x="7" y="77" width="40" height="30" as="geometry" />
        </mxCell>
        <mxCell id="GORoO4-SwAkdAgsHTjS7-18" value="chan" style="text;html=1;strokeColor=none;fillColor=none;align=center;verticalAlign=middle;whiteSpace=wrap;rounded=0;" parent="1" vertex="1">
          <mxGeometry x="2" y="126" width="60" height="30" as="geometry" />
        </mxCell>
        <mxCell id="GORoO4-SwAkdAgsHTjS7-19" value="" style="html=1;points=[[0,0,0,0,5],[0,1,0,0,-5],[1,0,0,0,5],[1,1,0,0,-5]];perimeter=orthogonalPerimeter;outlineConnect=0;targetShapes=umlLifeline;portConstraint=eastwest;newEdgeStyle={&quot;curved&quot;:0,&quot;rounded&quot;:0};" parent="1" vertex="1">
          <mxGeometry x="316" y="805" width="10" height="10" as="geometry" />
        </mxCell>
        <mxCell id="GORoO4-SwAkdAgsHTjS7-20" value="" style="html=1;points=[[0,0,0,0,5],[0,1,0,0,-5],[1,0,0,0,5],[1,1,0,0,-5]];perimeter=orthogonalPerimeter;outlineConnect=0;targetShapes=umlLifeline;portConstraint=eastwest;newEdgeStyle={&quot;curved&quot;:0,&quot;rounded&quot;:0};" parent="1" vertex="1">
          <mxGeometry x="185" y="790" width="10" height="130" as="geometry" />
        </mxCell>
        <mxCell id="GORoO4-SwAkdAgsHTjS7-21" value="" style="html=1;points=[[0,0,0,0,5],[0,1,0,0,-5],[1,0,0,0,5],[1,1,0,0,-5]];perimeter=orthogonalPerimeter;outlineConnect=0;targetShapes=umlLifeline;portConstraint=eastwest;newEdgeStyle={&quot;curved&quot;:0,&quot;rounded&quot;:0};" parent="1" vertex="1">
          <mxGeometry x="436" y="836" width="10" height="15" as="geometry" />
        </mxCell>
        <mxCell id="GORoO4-SwAkdAgsHTjS7-22" value="" style="html=1;points=[[0,0,0,0,5],[0,1,0,0,-5],[1,0,0,0,5],[1,1,0,0,-5]];perimeter=orthogonalPerimeter;outlineConnect=0;targetShapes=umlLifeline;portConstraint=eastwest;newEdgeStyle={&quot;curved&quot;:0,&quot;rounded&quot;:0};" parent="1" vertex="1">
          <mxGeometry x="704" y="767" width="10" height="23" as="geometry" />
        </mxCell>
        <mxCell id="GORoO4-SwAkdAgsHTjS7-23" value="" style="html=1;points=[[0,0,0,0,5],[0,1,0,0,-5],[1,0,0,0,5],[1,1,0,0,-5]];perimeter=orthogonalPerimeter;outlineConnect=0;targetShapes=umlLifeline;portConstraint=eastwest;newEdgeStyle={&quot;curved&quot;:0,&quot;rounded&quot;:0};" parent="1" vertex="1">
          <mxGeometry x="564" y="875" width="10" height="10" as="geometry" />
        </mxCell>
        <mxCell id="GORoO4-SwAkdAgsHTjS7-24" value="dispatch" style="html=1;verticalAlign=bottom;endArrow=block;curved=0;rounded=0;" parent="1" target="GORoO4-SwAkdAgsHTjS7-22" edge="1">
          <mxGeometry x="-0.3971" width="80" relative="1" as="geometry">
            <mxPoint x="800" y="767" as="sourcePoint" />
            <mxPoint x="550" y="767" as="targetPoint" />
            <mxPoint as="offset" />
          </mxGeometry>
        </mxCell>
        <mxCell id="GORoO4-SwAkdAgsHTjS7-25" value="update" style="html=1;verticalAlign=bottom;endArrow=block;curved=0;rounded=0;" parent="1" target="GORoO4-SwAkdAgsHTjS7-19" edge="1">
          <mxGeometry width="80" relative="1" as="geometry">
            <mxPoint x="195" y="808" as="sourcePoint" />
            <mxPoint x="325" y="808" as="targetPoint" />
          </mxGeometry>
        </mxCell>
        <mxCell id="GORoO4-SwAkdAgsHTjS7-26" value="" style="html=1;points=[[0,0,0,0,5],[0,1,0,0,-5],[1,0,0,0,5],[1,1,0,0,-5]];perimeter=orthogonalPerimeter;outlineConnect=0;targetShapes=umlLifeline;portConstraint=eastwest;newEdgeStyle={&quot;curved&quot;:0,&quot;rounded&quot;:0};" parent="1" vertex="1">
          <mxGeometry x="280.5" y="780" width="10" height="10" as="geometry" />
        </mxCell>
        <mxCell id="GORoO4-SwAkdAgsHTjS7-27" value="" style="html=1;points=[[0,0,0,0,5],[0,1,0,0,-5],[1,0,0,0,5],[1,1,0,0,-5]];perimeter=orthogonalPerimeter;outlineConnect=0;targetShapes=umlLifeline;portConstraint=eastwest;newEdgeStyle={&quot;curved&quot;:0,&quot;rounded&quot;:0};" parent="1" vertex="1">
          <mxGeometry x="399.5" y="830" width="10" height="10" as="geometry" />
        </mxCell>
        <mxCell id="GORoO4-SwAkdAgsHTjS7-28" value="" style="html=1;points=[[0,0,0,0,5],[0,1,0,0,-5],[1,0,0,0,5],[1,1,0,0,-5]];perimeter=orthogonalPerimeter;outlineConnect=0;targetShapes=umlLifeline;portConstraint=eastwest;newEdgeStyle={&quot;curved&quot;:0,&quot;rounded&quot;:0};" parent="1" vertex="1">
          <mxGeometry x="527.5" y="865" width="10" height="13" as="geometry" />
        </mxCell>
        <mxCell id="GORoO4-SwAkdAgsHTjS7-29" value="" style="html=1;points=[[0,0,0,0,5],[0,1,0,0,-5],[1,0,0,0,5],[1,1,0,0,-5]];perimeter=orthogonalPerimeter;outlineConnect=0;targetShapes=umlLifeline;portConstraint=eastwest;newEdgeStyle={&quot;curved&quot;:0,&quot;rounded&quot;:0};" parent="1" vertex="1">
          <mxGeometry x="705" y="901" width="10" height="10" as="geometry" />
        </mxCell>
        <mxCell id="GORoO4-SwAkdAgsHTjS7-30" value="" style="html=1;points=[[0,0,0,0,5],[0,1,0,0,-5],[1,0,0,0,5],[1,1,0,0,-5]];perimeter=orthogonalPerimeter;outlineConnect=0;targetShapes=umlLifeline;portConstraint=eastwest;newEdgeStyle={&quot;curved&quot;:0,&quot;rounded&quot;:0};" parent="1" vertex="1">
          <mxGeometry x="670.5" y="893" width="10" height="10" as="geometry" />
        </mxCell>
        <mxCell id="GORoO4-SwAkdAgsHTjS7-31" value="eventTick" style="html=1;verticalAlign=bottom;endArrow=block;curved=0;rounded=0;" parent="1" source="GORoO4-SwAkdAgsHTjS7-22" edge="1">
          <mxGeometry x="-0.497" width="80" relative="1" as="geometry">
            <mxPoint x="585" y="780" as="sourcePoint" />
            <mxPoint x="290.5" y="780" as="targetPoint" />
            <mxPoint as="offset" />
          </mxGeometry>
        </mxCell>
        <mxCell id="GORoO4-SwAkdAgsHTjS7-32" value="" style="html=1;verticalAlign=bottom;endArrow=block;curved=0;rounded=0;" parent="1" source="GORoO4-SwAkdAgsHTjS7-26" edge="1">
          <mxGeometry x="0.2" width="80" relative="1" as="geometry">
            <mxPoint x="220.5" y="790" as="sourcePoint" />
            <mxPoint x="194.5" y="790" as="targetPoint" />
            <mxPoint as="offset" />
          </mxGeometry>
        </mxCell>
        <mxCell id="GORoO4-SwAkdAgsHTjS7-33" value="state" style="html=1;verticalAlign=bottom;endArrow=block;curved=0;rounded=0;" parent="1" target="GORoO4-SwAkdAgsHTjS7-27" edge="1">
          <mxGeometry x="-0.4621" width="80" relative="1" as="geometry">
            <mxPoint x="195" y="830" as="sourcePoint" />
            <mxPoint x="429" y="830" as="targetPoint" />
            <mxPoint as="offset" />
          </mxGeometry>
        </mxCell>
        <mxCell id="GORoO4-SwAkdAgsHTjS7-34" value="" style="html=1;verticalAlign=bottom;endArrow=block;curved=0;rounded=0;" parent="1" source="GORoO4-SwAkdAgsHTjS7-27" target="GORoO4-SwAkdAgsHTjS7-21" edge="1">
          <mxGeometry width="80" relative="1" as="geometry">
            <mxPoint x="350" y="835" as="sourcePoint" />
            <mxPoint x="430" y="835" as="targetPoint" />
          </mxGeometry>
        </mxCell>
        <mxCell id="GORoO4-SwAkdAgsHTjS7-35" value="log" style="html=1;verticalAlign=bottom;endArrow=block;curved=0;rounded=0;" parent="1" edge="1">
          <mxGeometry x="-0.0909" width="80" relative="1" as="geometry">
            <mxPoint x="445" y="845" as="sourcePoint" />
            <mxPoint x="500" y="845" as="targetPoint" />
            <mxPoint as="offset" />
          </mxGeometry>
        </mxCell>
        <mxCell id="GORoO4-SwAkdAgsHTjS7-36" value="state" style="html=1;verticalAlign=bottom;endArrow=block;curved=0;rounded=0;" parent="1" edge="1">
          <mxGeometry x="-0.6692" width="80" relative="1" as="geometry">
            <mxPoint x="195" y="866" as="sourcePoint" />
            <mxPoint x="527.5" y="866" as="targetPoint" />
            <mxPoint as="offset" />
          </mxGeometry>
        </mxCell>
        <mxCell id="GORoO4-SwAkdAgsHTjS7-37" value="" style="html=1;verticalAlign=bottom;endArrow=block;curved=0;rounded=0;" parent="1" edge="1">
          <mxGeometry width="80" relative="1" as="geometry">
            <mxPoint x="538" y="876" as="sourcePoint" />
            <mxPoint x="563" y="876" as="targetPoint" />
          </mxGeometry>
        </mxCell>
        <mxCell id="GORoO4-SwAkdAgsHTjS7-38" value="print" style="html=1;verticalAlign=bottom;endArrow=block;curved=0;rounded=0;" parent="1" edge="1">
          <mxGeometry x="-0.0909" width="80" relative="1" as="geometry">
            <mxPoint x="574" y="882" as="sourcePoint" />
            <mxPoint x="629" y="882" as="targetPoint" />
            <mxPoint as="offset" />
          </mxGeometry>
        </mxCell>
        <mxCell id="GORoO4-SwAkdAgsHTjS7-39" value="state" style="html=1;verticalAlign=bottom;endArrow=block;curved=0;rounded=0;entryX=0;entryY=0;entryDx=0;entryDy=5;entryPerimeter=0;" parent="1" target="GORoO4-SwAkdAgsHTjS7-30" edge="1">
          <mxGeometry x="-0.7724" width="80" relative="1" as="geometry">
            <mxPoint x="196" y="898" as="sourcePoint" />
            <mxPoint x="529" y="898" as="targetPoint" />
            <mxPoint as="offset" />
          </mxGeometry>
        </mxCell>
        <mxCell id="GORoO4-SwAkdAgsHTjS7-40" value="" style="html=1;verticalAlign=bottom;endArrow=block;curved=0;rounded=0;" parent="1" edge="1">
          <mxGeometry width="80" relative="1" as="geometry">
            <mxPoint x="680" y="901" as="sourcePoint" />
            <mxPoint x="705" y="901" as="targetPoint" />
          </mxGeometry>
        </mxCell>
        <mxCell id="GORoO4-SwAkdAgsHTjS7-41" value="print" style="html=1;verticalAlign=bottom;endArrow=block;curved=0;rounded=0;" parent="1" edge="1">
          <mxGeometry x="-0.0909" width="80" relative="1" as="geometry">
            <mxPoint x="715" y="908" as="sourcePoint" />
            <mxPoint x="770" y="908" as="targetPoint" />
            <mxPoint as="offset" />
          </mxGeometry>
        </mxCell>
        <mxCell id="GORoO4-SwAkdAgsHTjS7-43" value="dispatch" style="html=1;verticalAlign=bottom;endArrow=block;curved=0;rounded=0;" parent="1" edge="1">
          <mxGeometry x="-0.469" width="80" relative="1" as="geometry">
            <mxPoint x="800" y="940" as="sourcePoint" />
            <mxPoint x="574" y="940" as="targetPoint" />
            <mxPoint as="offset" />
          </mxGeometry>
        </mxCell>
        <mxCell id="GORoO4-SwAkdAgsHTjS7-44" value="deregister" style="html=1;verticalAlign=bottom;endArrow=block;curved=0;rounded=0;" parent="1" edge="1">
          <mxGeometry x="-0.4354" width="80" relative="1" as="geometry">
            <mxPoint x="564" y="947" as="sourcePoint" />
            <mxPoint x="231" y="947" as="targetPoint" />
            <mxPoint as="offset" />
          </mxGeometry>
        </mxCell>
        <mxCell id="GORoO4-SwAkdAgsHTjS7-45" value="" style="html=1;points=[[0,0,0,0,5],[0,1,0,0,-5],[1,0,0,0,5],[1,1,0,0,-5]];perimeter=orthogonalPerimeter;outlineConnect=0;targetShapes=umlLifeline;portConstraint=eastwest;newEdgeStyle={&quot;curved&quot;:0,&quot;rounded&quot;:0};" parent="1" vertex="1">
          <mxGeometry x="185" y="955" width="10" height="12" as="geometry" />
        </mxCell>
        <mxCell id="GORoO4-SwAkdAgsHTjS7-46" value="" style="html=1;points=[[0,0,0,0,5],[0,1,0,0,-5],[1,0,0,0,5],[1,1,0,0,-5]];perimeter=orthogonalPerimeter;outlineConnect=0;targetShapes=umlLifeline;portConstraint=eastwest;newEdgeStyle={&quot;curved&quot;:0,&quot;rounded&quot;:0};" parent="1" vertex="1">
          <mxGeometry x="220.5" y="945" width="10" height="12" as="geometry" />
        </mxCell>
        <mxCell id="GORoO4-SwAkdAgsHTjS7-47" value="" style="html=1;verticalAlign=bottom;endArrow=block;curved=0;rounded=0;" parent="1" source="GORoO4-SwAkdAgsHTjS7-46" edge="1">
          <mxGeometry x="0.2" width="80" relative="1" as="geometry">
            <mxPoint x="210" y="955" as="sourcePoint" />
            <mxPoint x="195" y="955" as="targetPoint" />
            <mxPoint as="offset" />
          </mxGeometry>
        </mxCell>
        <mxCell id="GORoO4-SwAkdAgsHTjS7-48" value="" style="html=1;points=[[0,0,0,0,5],[0,1,0,0,-5],[1,0,0,0,5],[1,1,0,0,-5]];perimeter=orthogonalPerimeter;outlineConnect=0;targetShapes=umlLifeline;portConstraint=eastwest;newEdgeStyle={&quot;curved&quot;:0,&quot;rounded&quot;:0};" parent="1" vertex="1">
          <mxGeometry x="705" y="967" width="10" height="23" as="geometry" />
        </mxCell>
        <mxCell id="GORoO4-SwAkdAgsHTjS7-49" value="dispatch" style="html=1;verticalAlign=bottom;endArrow=block;curved=0;rounded=0;" parent="1" edge="1">
          <mxGeometry x="-0.3971" width="80" relative="1" as="geometry">
            <mxPoint x="800" y="971" as="sourcePoint" />
            <mxPoint x="714" y="971" as="targetPoint" />
            <mxPoint as="offset" />
          </mxGeometry>
        </mxCell>
        <mxCell id="GORoO4-SwAkdAgsHTjS7-50" value="deregister" style="html=1;verticalAlign=bottom;endArrow=block;curved=0;rounded=0;" parent="1" target="GORoO4-SwAkdAgsHTjS7-52" edge="1">
          <mxGeometry x="-0.5574" y="2" width="80" relative="1" as="geometry">
            <mxPoint x="705" y="984" as="sourcePoint" />
            <mxPoint x="240" y="984" as="targetPoint" />
            <mxPoint as="offset" />
          </mxGeometry>
        </mxCell>
        <mxCell id="GORoO4-SwAkdAgsHTjS7-51" value="" style="html=1;points=[[0,0,0,0,5],[0,1,0,0,-5],[1,0,0,0,5],[1,1,0,0,-5]];perimeter=orthogonalPerimeter;outlineConnect=0;targetShapes=umlLifeline;portConstraint=eastwest;newEdgeStyle={&quot;curved&quot;:0,&quot;rounded&quot;:0};" parent="1" vertex="1">
          <mxGeometry x="185" y="993" width="10" height="12" as="geometry" />
        </mxCell>
        <mxCell id="GORoO4-SwAkdAgsHTjS7-52" value="" style="html=1;points=[[0,0,0,0,5],[0,1,0,0,-5],[1,0,0,0,5],[1,1,0,0,-5]];perimeter=orthogonalPerimeter;outlineConnect=0;targetShapes=umlLifeline;portConstraint=eastwest;newEdgeStyle={&quot;curved&quot;:0,&quot;rounded&quot;:0};" parent="1" vertex="1">
          <mxGeometry x="220.5" y="983" width="10" height="12" as="geometry" />
        </mxCell>
        <mxCell id="GORoO4-SwAkdAgsHTjS7-53" value="" style="html=1;verticalAlign=bottom;endArrow=block;curved=0;rounded=0;" parent="1" source="GORoO4-SwAkdAgsHTjS7-52" edge="1">
          <mxGeometry x="0.2" width="80" relative="1" as="geometry">
            <mxPoint x="210" y="993" as="sourcePoint" />
            <mxPoint x="195" y="993" as="targetPoint" />
            <mxPoint as="offset" />
          </mxGeometry>
        </mxCell>
        <mxCell id="GORoO4-SwAkdAgsHTjS7-54" value="" style="html=1;points=[[0,0,0,0,5],[0,1,0,0,-5],[1,0,0,0,5],[1,1,0,0,-5]];perimeter=orthogonalPerimeter;outlineConnect=0;targetShapes=umlLifeline;portConstraint=eastwest;newEdgeStyle={&quot;curved&quot;:0,&quot;rounded&quot;:0};" parent="1" vertex="1">
          <mxGeometry x="130" y="961" width="10" height="12" as="geometry" />
        </mxCell>
        <mxCell id="GORoO4-SwAkdAgsHTjS7-55" value="" style="html=1;verticalAlign=bottom;endArrow=block;curved=0;rounded=0;exitX=0;exitY=0;exitDx=0;exitDy=5;exitPerimeter=0;" parent="1" source="GORoO4-SwAkdAgsHTjS7-45" edge="1">
          <mxGeometry x="0.2" width="80" relative="1" as="geometry">
            <mxPoint x="166" y="965" as="sourcePoint" />
            <mxPoint x="140" y="960" as="targetPoint" />
            <mxPoint as="offset" />
          </mxGeometry>
        </mxCell>
        <mxCell id="GORoO4-SwAkdAgsHTjS7-57" value="" style="html=1;verticalAlign=bottom;endArrow=block;curved=0;rounded=0;exitX=0;exitY=0;exitDx=0;exitDy=5;exitPerimeter=0;" parent="1" target="QETQvhtK7Vk9mIHsB0_v-2" edge="1">
          <mxGeometry x="0.2" width="80" relative="1" as="geometry">
            <mxPoint x="130" y="970" as="sourcePoint" />
            <mxPoint x="85" y="970" as="targetPoint" />
            <mxPoint as="offset" />
          </mxGeometry>
        </mxCell>
        <mxCell id="GORoO4-SwAkdAgsHTjS7-59" value="" style="html=1;points=[[0,0,0,0,5],[0,1,0,0,-5],[1,0,0,0,5],[1,1,0,0,-5]];perimeter=orthogonalPerimeter;outlineConnect=0;targetShapes=umlLifeline;portConstraint=eastwest;newEdgeStyle={&quot;curved&quot;:0,&quot;rounded&quot;:0};" parent="1" vertex="1">
          <mxGeometry x="130" y="1002" width="10" height="12" as="geometry" />
        </mxCell>
        <mxCell id="GORoO4-SwAkdAgsHTjS7-60" value="" style="html=1;verticalAlign=bottom;endArrow=block;curved=0;rounded=0;exitX=0;exitY=0;exitDx=0;exitDy=5;exitPerimeter=0;" parent="1" edge="1">
          <mxGeometry x="0.2" width="80" relative="1" as="geometry">
            <mxPoint x="185" y="1001" as="sourcePoint" />
            <mxPoint x="140" y="1001" as="targetPoint" />
            <mxPoint as="offset" />
          </mxGeometry>
        </mxCell>
        <mxCell id="GORoO4-SwAkdAgsHTjS7-61" value="" style="html=1;verticalAlign=bottom;endArrow=block;curved=0;rounded=0;exitX=0;exitY=0;exitDx=0;exitDy=5;exitPerimeter=0;" parent="1" edge="1">
          <mxGeometry x="0.2" width="80" relative="1" as="geometry">
            <mxPoint x="130" y="1011" as="sourcePoint" />
            <mxPoint x="80" y="1011" as="targetPoint" />
            <mxPoint as="offset" />
          </mxGeometry>
        </mxCell>
        <mxCell id="GORoO4-SwAkdAgsHTjS7-62" value="cend" style="shape=umlLifeline;perimeter=lifelinePerimeter;whiteSpace=wrap;html=1;container=0;dropTarget=0;collapsible=0;recursiveResize=0;outlineConnect=0;portConstraint=eastwest;newEdgeStyle={&quot;edgeStyle&quot;:&quot;elbowEdgeStyle&quot;,&quot;elbow&quot;:&quot;vertical&quot;,&quot;curved&quot;:0,&quot;rounded&quot;:0};" parent="1" vertex="1">
          <mxGeometry x="340" y="125" width="37" height="1030" as="geometry" />
        </mxCell>
        <mxCell id="GORoO4-SwAkdAgsHTjS7-63" value="" style="html=1;points=[[0,0,0,0,5],[0,1,0,0,-5],[1,0,0,0,5],[1,1,0,0,-5]];perimeter=orthogonalPerimeter;outlineConnect=0;targetShapes=umlLifeline;portConstraint=eastwest;newEdgeStyle={&quot;curved&quot;:0,&quot;rounded&quot;:0};" parent="GORoO4-SwAkdAgsHTjS7-62" vertex="1">
          <mxGeometry x="14" y="190" width="10" height="10" as="geometry" />
        </mxCell>
        <mxCell id="GORoO4-SwAkdAgsHTjS7-64" value="" style="html=1;points=[[0,0,0,0,5],[0,1,0,0,-5],[1,0,0,0,5],[1,1,0,0,-5]];perimeter=orthogonalPerimeter;outlineConnect=0;targetShapes=umlLifeline;portConstraint=eastwest;newEdgeStyle={&quot;curved&quot;:0,&quot;rounded&quot;:0};" parent="GORoO4-SwAkdAgsHTjS7-62" vertex="1">
          <mxGeometry x="13.5" y="905" width="10" height="10" as="geometry" />
        </mxCell>
        <mxCell id="iAInxyBxGeqeAdMTvfF1-4" value="" style="html=1;verticalAlign=bottom;endArrow=block;curved=0;rounded=0;entryX=0;entryY=0;entryDx=0;entryDy=5;entryPerimeter=0;" edge="1" parent="1" source="QETQvhtK7Vk9mIHsB0_v-2" target="GORoO4-SwAkdAgsHTjS7-64">
          <mxGeometry width="80" relative="1" as="geometry">
            <mxPoint x="90" y="1030" as="sourcePoint" />
            <mxPoint x="200" y="1030" as="targetPoint" />
          </mxGeometry>
        </mxCell>
        <mxCell id="iAInxyBxGeqeAdMTvfF1-5" value="new" style="html=1;verticalAlign=bottom;endArrow=block;curved=0;rounded=0;" edge="1" parent="1" source="QETQvhtK7Vk9mIHsB0_v-11">
          <mxGeometry x="0.5556" y="-1" width="80" relative="1" as="geometry">
            <mxPoint x="390" y="321" as="sourcePoint" />
            <mxPoint x="364" y="321" as="targetPoint" />
            <mxPoint as="offset" />
          </mxGeometry>
        </mxCell>
        <mxCell id="iAInxyBxGeqeAdMTvfF1-7" value="" style="html=1;verticalAlign=bottom;endArrow=block;curved=0;rounded=0;" edge="1" parent="1" source="GORoO4-SwAkdAgsHTjS7-64" target="iAInxyBxGeqeAdMTvfF1-6">
          <mxGeometry width="80" relative="1" as="geometry">
            <mxPoint x="155" y="1038" as="sourcePoint" />
            <mxPoint x="429" y="1038" as="targetPoint" />
          </mxGeometry>
        </mxCell>
        <mxCell id="iAInxyBxGeqeAdMTvfF1-8" value="deregister" style="html=1;verticalAlign=bottom;endArrow=block;curved=0;rounded=0;entryX=1;entryY=0;entryDx=0;entryDy=5;entryPerimeter=0;" edge="1" parent="1" target="iAInxyBxGeqeAdMTvfF1-10">
          <mxGeometry x="-0.4354" width="80" relative="1" as="geometry">
            <mxPoint x="436" y="1060" as="sourcePoint" />
            <mxPoint x="250" y="1060" as="targetPoint" />
            <mxPoint as="offset" />
          </mxGeometry>
        </mxCell>
        <mxCell id="iAInxyBxGeqeAdMTvfF1-9" value="" style="html=1;points=[[0,0,0,0,5],[0,1,0,0,-5],[1,0,0,0,5],[1,1,0,0,-5]];perimeter=orthogonalPerimeter;outlineConnect=0;targetShapes=umlLifeline;portConstraint=eastwest;newEdgeStyle={&quot;curved&quot;:0,&quot;rounded&quot;:0};" vertex="1" parent="1">
          <mxGeometry x="185" y="1066" width="10" height="12" as="geometry" />
        </mxCell>
        <mxCell id="iAInxyBxGeqeAdMTvfF1-10" value="" style="html=1;points=[[0,0,0,0,5],[0,1,0,0,-5],[1,0,0,0,5],[1,1,0,0,-5]];perimeter=orthogonalPerimeter;outlineConnect=0;targetShapes=umlLifeline;portConstraint=eastwest;newEdgeStyle={&quot;curved&quot;:0,&quot;rounded&quot;:0};" vertex="1" parent="1">
          <mxGeometry x="220.5" y="1056" width="10" height="12" as="geometry" />
        </mxCell>
        <mxCell id="iAInxyBxGeqeAdMTvfF1-11" value="" style="html=1;verticalAlign=bottom;endArrow=block;curved=0;rounded=0;" edge="1" parent="1" source="iAInxyBxGeqeAdMTvfF1-10">
          <mxGeometry x="0.2" width="80" relative="1" as="geometry">
            <mxPoint x="210" y="1066" as="sourcePoint" />
            <mxPoint x="195" y="1066" as="targetPoint" />
            <mxPoint as="offset" />
          </mxGeometry>
        </mxCell>
        <mxCell id="iAInxyBxGeqeAdMTvfF1-12" value="" style="html=1;points=[[0,0,0,0,5],[0,1,0,0,-5],[1,0,0,0,5],[1,1,0,0,-5]];perimeter=orthogonalPerimeter;outlineConnect=0;targetShapes=umlLifeline;portConstraint=eastwest;newEdgeStyle={&quot;curved&quot;:0,&quot;rounded&quot;:0};" vertex="1" parent="1">
          <mxGeometry x="130" y="1075" width="10" height="12" as="geometry" />
        </mxCell>
        <mxCell id="iAInxyBxGeqeAdMTvfF1-13" value="" style="html=1;verticalAlign=bottom;endArrow=block;curved=0;rounded=0;exitX=0;exitY=0;exitDx=0;exitDy=5;exitPerimeter=0;" edge="1" parent="1">
          <mxGeometry x="0.2" width="80" relative="1" as="geometry">
            <mxPoint x="185" y="1074" as="sourcePoint" />
            <mxPoint x="140" y="1074" as="targetPoint" />
            <mxPoint as="offset" />
          </mxGeometry>
        </mxCell>
        <mxCell id="iAInxyBxGeqeAdMTvfF1-14" value="" style="html=1;verticalAlign=bottom;endArrow=block;curved=0;rounded=0;exitX=0;exitY=0;exitDx=0;exitDy=5;exitPerimeter=0;" edge="1" parent="1">
          <mxGeometry x="0.2" width="80" relative="1" as="geometry">
            <mxPoint x="130" y="1084" as="sourcePoint" />
            <mxPoint x="80" y="1084" as="targetPoint" />
            <mxPoint as="offset" />
          </mxGeometry>
        </mxCell>
      </root>
    </mxGraphModel>
  </diagram>
</mxfile>
